<svg xmlns="http://www.w3.org/2000/svg" width="760" height="360" viewBox="0 0 760 360">

<defs>
  <filter id="shadow" x="-20%" y="-20%" width="140%" height="160%">
    <feDropShadow dx="0" dy="10" stdDeviation="12" flood-color="#3F35B5" flood-opacity="0.16"/>
  </filter>
  <filter id="badgeShadow" x="-30%" y="-30%" width="160%" height="170%">
    <feDropShadow dx="0" dy="6" stdDeviation="6" flood-color="#2A205E" flood-opacity="0.22"/>
  </filter>
  <linearGradient id="cardGloss" x1="0" y1="0" x2="1" y2="1">
    <stop offset="0" stop-color="#FFFFFF" stop-opacity="0.55"/>
    <stop offset="0.55" stop-color="#FFFFFF" stop-opacity="0.15"/>
    <stop offset="1" stop-color="#FFFFFF" stop-opacity="0"/>
  </linearGradient>
</defs>

<rect width="760" height="360" fill="none"/>

<g id="card_03_purple" transform="translate(30,30)">
  <rect x="0" y="0" width="700" height="300" rx="30" fill="#EFE2FF" stroke="#DCC6FF" stroke-width="4" filter="url(#shadow)"/>
  <rect x="5" y="5" width="690" height="290" rx="25" fill="url(#cardGloss)" stroke="#FFFFFF" stroke-opacity="0.85" stroke-width="3"/>
  <path d="M 568 300 C 580 220, 630 215, 700 180 L 700 300 Z" fill="#8A46F6" opacity="0.15"/>
  <path d="M 582 300 C 595 242, 638 234, 700 204" fill="none" stroke="#FFFFFF" stroke-opacity="0.55" stroke-width="3"/>
  <polygon points="652.0,28.0 656.8,43.2 672.0,48.0 656.8,52.8 652.0,68.0 647.2,52.8 632.0,48.0 647.2,43.2" fill="#FFFFFF" opacity="0.95"/>
  <polygon points="610.0,82.0 612.4,89.6 620.0,92.0 612.4,94.4 610.0,102.0 607.6,94.4 600.0,92.0 607.6,89.6" fill="#FFFFFF" opacity="0.9"/>
  <polygon points="640.0,233.0 642.9,242.1 652.0,245.0 642.9,247.9 640.0,257.0 637.1,247.9 628.0,245.0 637.1,242.1" fill="#FFFFFF" opacity="0.75"/>
  <g id="badge_03" filter="url(#badgeShadow)">
    <path d="M 0 0 H 78 Q 96 0 96 18 V 60 Q 96 76 80 76 H 0 Z" fill="#8A46F6"/>
    <rect x="2" y="2" width="90" height="70" rx="20" fill="#FFFFFF" opacity="0.08"/>
    <text x="44.0" y="52" text-anchor="middle" font-family="Arial, sans-serif" font-size="38" font-weight="700" fill="#FFFFFF">03</text>
  </g>
  <g id="content_guides" opacity="0.22">
    <rect x="38" y="64" width="150" height="204" rx="22" fill="none" stroke="#8A46F6" stroke-dasharray="10 10" stroke-width="2"/>
    <rect x="220" y="74" width="440" height="44" rx="10" fill="none" stroke="#8A46F6" stroke-dasharray="10 10" stroke-width="2"/>
    <rect x="220" y="132" width="415" height="62" rx="10" fill="none" stroke="#8A46F6" stroke-dasharray="10 10" stroke-width="2"/>
  </g>
</g>

</svg>