<svg xmlns="http://www.w3.org/2000/svg" width="520" height="180" viewBox="0 0 520 180">

<defs>
  <filter id="shadow" x="-20%" y="-20%" width="140%" height="160%">
    <feDropShadow dx="0" dy="10" stdDeviation="12" flood-color="#3F35B5" flood-opacity="0.16"/>
  </filter>
  <filter id="badgeShadow" x="-30%" y="-30%" width="160%" height="170%">
    <feDropShadow dx="0" dy="6" stdDeviation="6" flood-color="#2A205E" flood-opacity="0.22"/>
  </filter>
  <linearGradient id="cardGloss" x1="0" y1="0" x2="1" y2="1">
    <stop offset="0" stop-color="#FFFFFF" stop-opacity="0.55"/>
    <stop offset="0.55" stop-color="#FFFFFF" stop-opacity="0.15"/>
    <stop offset="1" stop-color="#FFFFFF" stop-opacity="0"/>
  </linearGradient>
</defs>

<rect width="520" height="180" fill="none"/>
<g transform="translate(35,35)"><path d="M0 100 C10 30 55 32 110 0 V100 Z" fill="#2F6FFF" opacity="0.24"/><polygon points="72.0,41.0 75.4,51.6 86.0,55.0 75.4,58.4 72.0,69.0 68.6,58.4 58.0,55.0 68.6,51.6" fill="#FFFFFF" opacity="0.9"/></g>
<g transform="translate(200,35)"><path d="M0 100 C10 30 55 32 110 0 V100 Z" fill="#8A46F6" opacity="0.24"/><polygon points="72.0,41.0 75.4,51.6 86.0,55.0 75.4,58.4 72.0,69.0 68.6,58.4 58.0,55.0 68.6,51.6" fill="#FFFFFF" opacity="0.9"/></g>
<g transform="translate(365,35)"><path d="M0 100 C10 30 55 32 110 0 V100 Z" fill="#F0505E" opacity="0.24"/><polygon points="72.0,41.0 75.4,51.6 86.0,55.0 75.4,58.4 72.0,69.0 68.6,58.4 58.0,55.0 68.6,51.6" fill="#FFFFFF" opacity="0.9"/></g>
</svg>