<svg xmlns="http://www.w3.org/2000/svg" viewBox="0 0 64 64">
  <defs>
    <linearGradient id="plg" x1="0" y1="0" x2="1" y2="1"><stop offset="0" stop-color="#FAB1A0"/><stop offset="1" stop-color="#E17055"/></linearGradient>
  </defs>
  <path d="M32 8C19 8 8 18 8 30c0 10 7 18 18 18h2c3 0 5 2 5 5 0 2 2 3 4 3 10 0 19-9 19-21C56 20 45 8 32 8Z" fill="url(#plg)"/>
  <path d="M32 8C24 8 16 14 13 22c4-5 10-8 17-8 8 0 15 5 18 12" fill="#fff" opacity=".15"/>
  <circle cx="20" cy="24" r="4" fill="#FF6B6B"/>
  <circle cx="31" cy="18" r="4" fill="#FECA57"/>
  <circle cx="42" cy="24" r="4" fill="#48DBFB"/>
  <circle cx="23" cy="36" r="4" fill="#1DD1A1"/>
  <circle cx="18" cy="22" r="1.5" fill="#fff" opacity=".5"/>
  <circle cx="29" cy="16" r="1.5" fill="#fff" opacity=".5"/>
  <circle cx="40" cy="22" r="1.5" fill="#fff" opacity=".5"/>
  <circle cx="21" cy="34" r="1.5" fill="#fff" opacity=".5"/>
</svg>
