<svg xmlns="http://www.w3.org/2000/svg" viewBox="0 0 64 64">
  <defs>
    <linearGradient id="ug" x1="0" y1="0" x2="1" y2="1"><stop offset="0" stop-color="#DFE6E9"/><stop offset="1" stop-color="#A29BFE"/></linearGradient>
  </defs>
  <path d="M20 46h24a11 11 0 1 0-2-22 14 14 0 0 0-26-2 11 11 0 0 0 4 24Z" fill="url(#ug)"/>
  <path d="M20 46c-4 0-8-3-9-7 3-1 8 0 12-2 6-3 8-10 15-12 5-2 11 1 13 5" fill="#fff" opacity=".12"/>
  <path d="M32 40V24M25 31l7-7 7 7" fill="none" stroke="#fff" stroke-width="4" stroke-linecap="round" stroke-linejoin="round"/>
  <circle cx="48" cy="16" r="2.5" fill="#FF6B6B" opacity=".65"/>
</svg>
